<svg data-v-423bf9ae="" xmlns="http://www.w3.org/2000/svg" viewBox="0 0 2406.7755208333333 2986" class="iconAbove"><!----><!----><!----><g data-v-423bf9ae="" id="9aea0d42-bb22-4e09-9f18-d0ffebe989cb" fill="#2A1B3C" transform="matrix(6.122448921203613,0,0,6.122448921203613,1095.69384765625,2921.425537109375)"><path d="M0 10.50L0 4.62L0.98 4.62L0.98 10.50L0 10.50ZM0 0.70L2.83 0.70Q3.28 0.70 3.60 1.03Q3.93 1.36 3.93 1.82L3.93 1.82L3.93 4.48Q3.93 4.94 3.60 5.27Q3.28 5.60 2.83 5.60L2.83 5.60L2.48 5.60L3.93 10.50L2.88 10.50L1.19 4.62L2.83 4.62Q2.95 4.62 2.95 4.48L2.95 4.48L2.95 1.82Q2.95 1.68 2.83 1.68L2.83 1.68L0.98 1.68L0.98 4.62L0 1.68L0 0.70ZM8.37 1.68L5.82 1.68L5.82 4.62L7.87 4.62L7.87 5.60L5.82 5.60L5.82 9.52L8.37 9.52L8.37 10.50L4.84 10.50L4.84 4.62L5.82 4.62L4.84 1.68L4.84 0.70L8.37 0.70L8.37 1.68ZM13.05 2.86L12.07 2.86L12.07 1.81Q12.07 1.67 11.93 1.67L11.93 1.67L10.40 1.67Q10.26 1.67 10.26 1.81L10.26 1.81L10.26 4.47Q10.26 4.56 10.35 4.59L10.35 4.59L11.93 4.59Q12.40 4.59 12.73 4.92Q13.05 5.25 13.05 5.71L13.05 5.71L13.05 9.39Q13.05 9.81 12.78 10.12Q12.52 10.43 12.11 10.50L12.11 10.50L10.22 10.50Q9.81 10.43 9.55 10.12Q9.28 9.81 9.28 9.39L9.28 9.39L9.28 8.34L10.26 8.34L10.26 9.39Q10.26 9.53 10.40 9.53L10.40 9.53L11.93 9.53Q12.07 9.53 12.07 9.39L12.07 9.39L12.07 5.71Q12.07 5.61 11.98 5.59L11.98 5.59L10.40 5.59Q9.94 5.59 9.61 5.26Q9.28 4.93 9.28 4.47L9.28 4.47L9.28 1.81Q9.28 1.39 9.55 1.08Q9.81 0.77 10.22 0.70L10.22 0.70L12.11 0.70Q12.52 0.77 12.78 1.08Q13.05 1.39 13.05 1.81L13.05 1.81L13.05 2.86ZM14.94 0.70L14.94 10.50L13.96 10.50L13.96 0.70L14.94 0.70ZM16.83 9.51L19.38 9.51L19.38 10.50L15.85 10.50L15.85 9.51L15.85 0.70L16.83 0.70L16.83 9.51ZM21.28 0.70L21.28 10.50L20.30 10.50L20.30 0.70L21.28 0.70ZM25.72 1.68L23.17 1.68L23.17 4.62L25.21 4.62L25.21 5.60L23.17 5.60L23.17 9.52L25.72 9.52L25.72 10.50L22.19 10.50L22.19 4.62L23.17 4.62L22.19 1.68L22.19 0.70L25.72 0.70L25.72 1.68ZM29.57 0.70L30.55 0.70L30.55 10.50L29.57 10.50L29.57 10.50L29.54 10.50L27.61 4.03L27.61 10.50L26.63 10.50L26.63 0.70L27.61 0.70L27.61 0.71L29.57 7.18L29.57 0.70ZM35.18 0.70L35.18 1.68L33.81 1.68L33.81 10.50L32.83 10.50L32.83 1.68L31.46 1.68L31.46 0.70L35.18 0.70Z"></path></g><defs data-v-423bf9ae=""><linearGradient data-v-423bf9ae="" gradientTransform="rotate(25)" id="c3a796ba-65f0-4a97-b5c9-f5887baff8da" x1="0%" y1="0%" x2="100%" y2="0%"><stop data-v-423bf9ae="" offset="0%" style="stop-color: rgb(54, 22, 172); stop-opacity: 1;"></stop><stop data-v-423bf9ae="" offset="100%" style="stop-color: rgb(224, 155, 237); stop-opacity: 1;"></stop></linearGradient></defs><g data-v-423bf9ae="" id="11a4f286-d04c-4a67-be9b-bd34f307a1e9" transform="matrix(5.688889026641846,0,0,5.688889026641846,-252.8885498046875,0.6444091796875)" stroke="none" fill="url(#c3a796ba-65f0-4a97-b5c9-f5887baff8da)"><path d="M256 0C139.167 0 44.467 94.708 44.467 211.533 44.467 372.184 256 512 256 512s211.533-139.816 211.533-300.467C467.533 94.708 372.833 0 256 0zm0 375.941c-90.8 0-164.4-73.6-164.4-164.408 0-90.8 73.601-164.408 164.4-164.408s164.417 73.608 164.417 164.408c0 90.809-73.617 164.408-164.417 164.408z"></path><path d="M343.649 186.783c-5.416 0-9.808 4.4-9.808 9.817v49.067c0 5.417 4.392 9.816 9.808 9.816 5.426 0 9.817-4.4 9.817-9.816V196.6c.001-5.416-4.391-9.817-9.817-9.817zM314.208 167.167c-5.416 0-9.809 4.383-9.809 9.8V265.3c0 5.417 4.393 9.8 9.809 9.8 5.426 0 9.816-4.383 9.816-9.8v-88.333c0-5.417-4.39-9.8-9.816-9.8zM167.008 186.783c-5.417 0-9.808 4.4-9.808 9.817v49.067c0 5.417 4.392 9.816 9.808 9.816 5.425 0 9.817-4.4 9.817-9.816V196.6c0-5.416-4.392-9.817-9.817-9.817zM196.45 167.167c-5.417 0-9.809 4.383-9.809 9.8V265.3c0 5.417 4.392 9.8 9.809 9.8 5.425 0 9.816-4.383 9.816-9.8v-88.333c.001-5.417-4.391-9.8-9.816-9.8zM216.075 206.417h78.508v29.433h-78.508z"></path></g><!----></svg>